# xmcd
#
# Track frame offsets:
#	150
#	12132
#	27028
#	41361
#	57643
#	71906
#	86007
#	97526
#	110476
#	128574
#	140753
#	155705
#	171313
#	182882
#	193212
#
# Disc length: 2915 seconds
#
# Revision: 1
# Processed by: cddbd v1.5.2PL0 Copyright (c) Steve Scherf et al.
# Submitted via: audiograbber 1.83.01
#
DISCID=cf0b610f
DTITLE=Chartbuster - CB80109
DYEAR=1900
DGENRE=Country
TTITLE0=Ronnie Milsap - Daydreams About Night Things
TTITLE1=Glen Campbell - Country Boy (You Got Your Feet In L.A.)
TTITLE2=Ronnie Milsap - I'd Be A Legend In My Time
TTITLE3=Jessi Colter - I'm Not Lisa
TTITLE4=Waylon Jennings - I'm A Ramblin'  Man
TTITLE5=Glen Campbell - Rhinstone Cowboy
TTITLE6=Billy Crash Craddock - Ruby, Baby
TTITLE7=Tanya Tucker - San Antonio Stroll
TTITLE8=C.W. McCall - Convoy
TTITLE9=Joe Stampley - Roll On Big Mama
TTITLE10=Barbara Mandrell - Standing Room Only
TTITLE11=John Denver - Thank God I'm A Country Boy
TTITLE12=Don Williams - Turn Out The Light and Love Me Tonight
TTITLE13=Linda Ronstadt - When Will I Be Loved
TTITLE14=David Allan Coe - You Never Even Call Me By My Name
EXTD=
EXTT0=
EXTT1=
EXTT2=
EXTT3=
EXTT4=
EXTT5=
EXTT6=
EXTT7=
EXTT8=
EXTT9=
EXTT10=
EXTT11=
EXTT12=
EXTT13=
EXTT14=
PLAYORDER=
